<svg width="22" height="22" viewBox="0 0 22 22" fill="none" xmlns="http://www.w3.org/2000/svg">
<path d="M20.3125 5.50991H16.055L16.458 0.881905C16.497 0.435572 16.1655 0.0423218 15.7192 0.0022385C15.2674 -0.0302615 14.8785 0.294739 14.8395 0.742155L14.4246 5.50882H7.57792L7.97875 0.882989C8.01883 0.435572 7.68625 0.0423218 7.24208 0.0022385C6.78708 -0.0302615 6.40033 0.294739 6.36133 0.742155L5.9475 5.50882H1.65967C1.21117 5.50882 0.847167 5.87391 0.847167 6.32132C0.847167 6.76874 1.21117 7.13382 1.65967 7.13382H5.80667L5.21083 13.9881H0.8125C0.364 13.9881 0 14.3521 0 14.8006C0 15.2491 0.364 15.6131 0.8125 15.6131H5.07L4.667 20.2411C4.628 20.6874 4.9595 21.0807 5.40583 21.1207L5.47733 21.124C5.89442 21.124 6.24867 20.8044 6.2855 20.3808L6.70042 15.6142H13.5471L13.1463 20.24C13.1073 20.6874 13.4388 21.0807 13.8851 21.1207L13.9566 21.124C14.3737 21.124 14.7279 20.8044 14.7648 20.3808L15.1786 15.6142H19.4653C19.9128 15.6142 20.2778 15.2491 20.2778 14.8017C20.2778 14.3542 19.9128 13.9892 19.4653 13.9892H15.3183L15.9142 7.13491H20.3125C20.761 7.13491 21.125 6.77091 21.125 6.32241C21.125 5.87391 20.761 5.50991 20.3125 5.50991ZM13.6879 13.9881H6.84125L7.43708 7.13491H14.2838L13.6879 13.9881Z" fill="white"/>
</svg>
