<svg width="25" height="22" viewBox="0 0 25 22" fill="none" xmlns="http://www.w3.org/2000/svg">
<path d="M23.4867 6.03742L12.5396 0.13C12.2179 -0.0433333 11.8311 -0.0433333 11.5105 0.13L0.568809 6.03742C0.0423095 6.32342 -0.153774 6.97992 0.13006 7.50642C0.32506 7.86933 0.69881 8.07517 1.08339 8.07517C1.25673 8.07517 1.43439 8.034 1.59798 7.94517L2.39314 7.51617L4.11564 19.7037C4.34964 21.0188 5.53481 21.9375 6.99731 21.9375H17.0528C18.5153 21.9375 19.7005 21.0188 19.9366 19.6755L21.657 7.51508L22.4554 7.94625C22.9808 8.23117 23.6384 8.03508 23.9222 7.50858C24.2071 6.98208 24.0089 6.3245 23.4846 6.04067L23.4867 6.03742ZM12.0251 14.7962C10.0805 14.7962 8.50423 13.2199 8.50423 11.2753C8.50423 9.33075 10.0805 7.7545 12.0251 7.7545C13.9696 7.7545 15.5459 9.33075 15.5459 11.2753C15.5459 13.2199 13.9696 14.7962 12.0251 14.7962Z" fill="white"/>
</svg>
