<svg width="19" height="23" viewBox="0 0 19 23" fill="none" xmlns="http://www.w3.org/2000/svg">
<path d="M9.04689 11.1307C10.5148 11.1307 12.1582 10.9682 13.2069 9.77002C14.0887 8.76252 14.3747 7.20469 14.0801 5.01202C13.6684 1.95161 11.7866 0.124023 9.04689 0.124023C6.30714 0.124023 4.42539 1.95161 4.01373 5.01419C3.71906 7.20469 4.00506 8.76252 4.88689 9.77002C5.93556 10.9693 7.57898 11.1307 9.04689 11.1307ZM5.62356 5.22869C5.79906 3.92869 6.47614 1.74902 9.04689 1.74902C11.6176 1.74902 12.2947 3.92977 12.4702 5.22869C12.6945 6.90786 12.532 8.07461 11.9827 8.70077C11.4898 9.26411 10.6112 9.50569 9.04689 9.50569C7.48256 9.50569 6.60398 9.26411 6.11106 8.70077C5.56181 8.07461 5.39931 6.90677 5.62356 5.22869ZM18.0169 19.169C17.0668 15.3492 13.3781 12.6799 9.04689 12.6799C4.71573 12.6799 1.02698 15.3492 0.0768944 19.169C-0.109439 19.9187 0.0465608 20.6857 0.504811 21.2707C0.946811 21.834 1.63148 22.159 2.38223 22.159H15.7116C16.4623 22.159 17.147 21.834 17.589 21.2707C18.0483 20.6857 18.2032 19.9198 18.0158 19.169H18.0169ZM16.3096 20.2697C16.1731 20.443 15.9672 20.5362 15.7116 20.5362H2.38223C2.12764 20.5362 1.92073 20.4441 1.78423 20.2697C1.63581 20.0812 1.58923 19.8234 1.65423 19.5612C2.42339 16.4683 5.46431 14.307 9.04689 14.307C12.6295 14.307 15.6704 16.4672 16.4396 19.5612C16.5046 19.8234 16.458 20.0812 16.3096 20.2697Z" fill="white"/>
</svg>
